nColumns=19
nRows=112
DataType=double
version=3
OpenSimVersion=4.1
endheader
time	ground_force_1_vx	ground_force_1_vy	ground_force_1_vz	ground_force_1_px	ground_force_1_py	ground_force_1_pz	ground_force_1_mx	ground_force_1_my	ground_force_1_mz	ground_force_2_vx	ground_force_2_vy	ground_force_2_vz	ground_force_2_px	ground_force_2_py	ground_force_2_pz	ground_force_2_mx	ground_force_2_my	ground_force_2_mz
0.26	-2.20495	20.4454	-8.25081	1.19263	0	-0.380937	-0	4.28257	-0	0	0	0	-0.000304521	0	0.00139118	0	0	0
0.27	-13.0093	81.3714	-11.5236	1.23915	0	-0.411361	-0	4.43284	-0	0	0	0	-0.000304521	0	0.00139118	0	0	0
0.28	-28.5918	261.801	-10.6933	1.25707	0	-0.41768	-0	3.7172	-0	0	0	0	-0.000304521	0	0.00139118	0	0	0
0.29	-40.2812	613.004	0.0672747	1.25232	0	-0.414294	-0	2.10313	-0	0	0	0	-0.000304521	0	0.00139118	0	0	0
0.3	-58.1436	1025.92	18.4289	1.23766	0	-0.410762	0	-0.077019	0	0	0	0	-0.000304521	0	0.00139118	0	0	0
0.31	-100.999	1298.39	30.5975	1.22107	0	-0.41042	0	-2.22838	0	0	0	0	-0.000304521	0	0.00139118	0	0	0
0.32	-153.916	1387.86	29.2376	1.20169	0	-0.411059	0	-3.81235	0	0	0	0	-0.000304521	0	0.00139118	0	0	0
0.33	-193.512	1433.46	19.419	1.17599	0	-0.410389	0	-4.63617	0	0	0	0	-0.000304521	0	0.00139118	0	0	0
0.34	-207.918	1550.9	8.24184	1.14735	0	-0.409293	0	-4.91122	0	0	0	0	-0.000304521	0	0.00139118	0	0	0
0.35	-186.012	1711.47	1.91811	1.11671	0	-0.408251	0	-5.08495	0	0	0	0	-0.000304521	0	0.00139118	0	0	0
0.36	-140.777	1839.63	2.36219	1.08348	0	-0.40785	0	-5.58222	0	0	0	0	-0.000304521	0	0.00139118	0	0	0
0.37	-82.0976	1902.93	7.94323	1.04821	0	-0.407858	0	-6.6117	0	0	0	0	-0.000304521	0	0.00139118	0	0	0
0.38	-18.7738	1903.22	16.785	1.01271	0	-0.408248	0	-8.1048	0	0	0	0	-0.000304521	0	0.00139118	0	0	0
0.39	47.8294	1844	28.3238	0.977599	0	-0.409265	0	-9.7553	0	0	0	0	-0.000304521	0	0.00139118	0	0	0
0.4	117.98	1729.08	42.1127	0.941669	0	-0.410785	0	-11.1056	0	0	0	0	-0.000304521	0	0.00139118	0	0	0
0.41	190.524	1563.71	55.5116	0.904105	0	-0.412572	0	-11.661	0	0	0	0	-0.000304521	0	0.00139118	0	0	0
0.42	247.669	1352.41	64.6738	0.865242	0	-0.414126	0	-11.0363	0	0	0	0	-0.000304521	0	0.00139118	0	0	0
0.43	272.393	1104.88	66.1412	0.826239	0	-0.4154	0	-9.10994	0	0	0	0	-0.000304521	0	0.00139118	0	0	0
0.44	264.996	839.8	59.2838	0.787448	0	-0.416761	0	-6.11936	0	0	0	0	-0.000304521	0	0.00139118	0	0	0
0.45	233.603	586.48	47.0826	0.750453	0	-0.418106	0	-2.62519	0	0	0	0	-0.000304521	0	0.00139118	0	0	0
0.46	185.766	372.093	33.6719	0.718661	0	-0.418069	-0	0.667089	-0	0	0	0	-0.000304521	0	0.00139118	0	0	0
0.47	129.208	208.911	21.4288	0.689844	0	-0.415475	-0	3.15066	-0	0	0	0	-0.000304521	0	0.00139118	0	0	0
0.48	71.4052	99.7802	11.1652	0.656914	0	-0.410291	-0	4.51089	-0	0	0	0	-0.000304521	0	0.00139118	0	0	0
0.49	27.9839	39.5386	3.89963	0.633321	0	-0.394951	-0	4.79465	-0	0	0	0	-0.000304521	0	0.00139118	0	0	0
0.5	5.83974	13.0391	0.283847	0.718265	0	-0.33526	-0	4.34638	-0	0	0	0	-0.000304521	0	0.00139118	0	0	0
0.51	0	0	0	-0.000304521	0	0.00139118	0	0	0	0	0	0	-0.000304521	0	0.00139118	0	0	0
0.52	0	0	0	-0.000304521	0	0.00139118	0	0	0	0	0	0	-0.000304521	0	0.00139118	0	0	0
0.53	0	0	0	-0.000304521	0	0.00139118	0	0	0	0	0	0	-0.000304521	0	0.00139118	0	0	0
0.54	0	0	0	-0.000304521	0	0.00139118	0	0	0	0	0	0	-0.000304521	0	0.00139118	0	0	0
0.55	0	0	0	-0.000304521	0	0.00139118	0	0	0	0	0	0	-0.000304521	0	0.00139118	0	0	0
0.56	0	0	0	-0.000304521	0	0.00139118	0	0	0	0	0	0	-0.000304521	0	0.00139118	0	0	0
0.57	0	0	0	-0.000304521	0	0.00139118	0	0	0	-6.04238	17.1898	-4.50233	1.22207	0	-0.427899	-0	0.701844	-0
0.58	0	0	0	-0.000304521	0	0.00139118	0	0	0	-22.1178	75.049	-4.69937	1.28793	0	-0.444913	0	-1.92629	0
0.59	0	0	0	-0.000304521	0	0.00139118	0	0	0	-58.383	249.649	0.345514	1.28542	0	-0.442268	0	-5.35672	0
0.6	0	0	0	-0.000304521	0	0.00139118	0	0	0	-103.803	605.703	12.5774	1.27571	0	-0.436917	0	-8.88902	0
0.61	0	0	0	-0.000304521	0	0.00139118	0	0	0	-148.417	1068.47	24.6295	1.26345	0	-0.433417	0	-11.578	0
0.62	0	0	0	-0.000304521	0	0.00139118	0	0	0	-197.863	1409.58	23.9829	1.25031	0	-0.433368	0	-12.6053	0
0.63	0	0	0	-0.000304521	0	0.00139118	0	0	0	-243.069	1546.19	11.0427	1.23236	0	-0.43466	0	-11.6171	0
0.64	0	0	0	-0.000304521	0	0.00139118	0	0	0	-272.581	1651.33	-2.36857	1.20473	0	-0.434578	0	-8.7825	0
0.65	0	0	0	-0.000304521	0	0.00139118	0	0	0	-265.353	1820.91	-12.1846	1.17247	0	-0.4329	0	-4.60017	0
0.66	0	0	0	-0.000304521	0	0.00139118	0	0	0	-223.182	1980.49	-21.9505	1.14037	0	-0.43122	-0	0.314365	-0
0.67	0	0	0	-0.000304521	0	0.00139118	0	0	0	-169.014	2059.81	-32.1493	1.1083	0	-0.430207	-0	5.34386	-0
0.68	0	0	0	-0.000304521	0	0.00139118	0	0	0	-101.688	2060.41	-41.0169	1.0751	0	-0.42934	-0	9.93052	-0
0.69	0	0	0	-0.000304521	0	0.00139118	0	0	0	-24.9912	2000.42	-48.8137	1.04064	0	-0.428128	-0	13.6248	-0
0.7	0	0	0	-0.000304521	0	0.00139118	0	0	0	52.1857	1884.94	-56.0942	1.00502	0	-0.426472	-0	16.1185	-0
0.71	0	0	0	-0.000304521	0	0.00139118	0	0	0	126.426	1712.92	-61.2579	0.96772	0	-0.424666	-0	17.2629	-0
0.72	0	0	0	-0.000304521	0	0.00139118	0	0	0	190.873	1485.13	-63.0847	0.928604	0	-0.423238	-0	17.074	-0
0.73	0	0	0	-0.000304521	0	0.00139118	0	0	0	233.901	1216.09	-62.4126	0.889463	0	-0.422722	-0	15.712	-0
0.74	0	0	0	-0.000304521	0	0.00139118	0	0	0	244.047	932.066	-59.3184	0.851931	0	-0.422938	-0	13.4399	-0
0.75	0	0	0	-0.000304521	0	0.00139118	0	0	0	221.489	660.214	-52.9939	0.815896	0	-0.42346	-0	10.5879	-0
0.76	0	0	0	-0.000304521	0	0.00139118	0	0	0	174.632	423.7	-43.6433	0.780905	0	-0.424884	-0	7.5306	-0
0.77	0	0	0	-0.000304521	0	0.00139118	0	0	0	117.504	240.052	-32.1859	0.746117	0	-0.427233	-0	4.65587	-0
0.78	0	0	0	-0.000304521	0	0.00139118	0	0	0	64.9851	115.397	-20.5875	0.710935	0	-0.427881	-0	2.30816	-0
0.79	0	0	0	-0.000304521	0	0.00139118	0	0	0	28.2758	44.4222	-11.7514	0.686006	0	-0.424197	-0	0.712239	-0
0.8	0	0	0	-0.000304521	0	0.00139118	0	0	0	10.3957	13.8185	-6.48461	0.743967	0	-0.401859	0	-0.089211	0
0.81	0	0	0	-0.000304521	0	0.00139118	0	0	0	0	0	0	-0.000304521	0	0.00139118	0	0	0
0.82	0	0	0	-0.000304521	0	0.00139118	0	0	0	0	0	0	-0.000304521	0	0.00139118	0	0	0
0.83	0	0	0	-0.000304521	0	0.00139118	0	0	0	0	0	0	-0.000304521	0	0.00139118	0	0	0
0.84	0	0	0	-0.000304521	0	0.00139118	0	0	0	0	0	0	-0.000304521	0	0.00139118	0	0	0
0.85	0	0	0	-0.000304521	0	0.00139118	0	0	0	0	0	0	-0.000304521	0	0.00139118	0	0	0
0.86	0	0	0	-0.000304521	0	0.00139118	0	0	0	0	0	0	-0.000304521	0	0.00139118	0	0	0
0.87	0	0	0	-0.000304521	0	0.00139118	0	0	0	0	0	0	-0.000304521	0	0.00139118	0	0	0
0.88	-2.3851	10.6375	-5.45861	1.00896	0	-0.332735	-0	2.99701	-0	0	0	0	-0.000304521	0	0.00139118	0	0	0
0.89	-10.2933	35.2635	-9.47128	1.20863	0	-0.42644	-0	3.80873	-0	0	0	0	-0.000304521	0	0.00139118	0	0	0
0.9	-25.7093	129.418	-13.4016	1.29072	0	-0.445601	-0	4.25879	-0	0	0	0	-0.000304521	0	0.00139118	0	0	0
0.91	-50.1706	370.439	-10.8865	1.29842	0	-0.442303	-0	3.96441	-0	0	0	0	-0.000304521	0	0.00139118	0	0	0
0.92	-83.9847	761.442	2.55488	1.28642	0	-0.436211	-0	2.74247	-0	0	0	0	-0.000304521	0	0.00139118	0	0	0
0.93	-136.666	1147.2	18.9504	1.27127	0	-0.433893	-0	0.728401	-0	0	0	0	-0.000304521	0	0.00139118	0	0	0
0.94	-200.93	1363.97	27.209	1.25563	0	-0.435271	0	-1.71846	0	0	0	0	-0.000304521	0	0.00139118	0	0	0
0.95	-249.795	1444.82	27.9834	1.2353	0	-0.436708	0	-4.22694	0	0	0	0	-0.000304521	0	0.00139118	0	0	0
0.96	-278.098	1539.85	27.0111	1.20907	0	-0.43675	0	-6.56009	0	0	0	0	-0.000304521	0	0.00139118	0	0	0
0.97	-272.335	1687.52	28.1504	1.17871	0	-0.43602	0	-8.63481	0	0	0	0	-0.000304521	0	0.00139118	0	0	0
0.98	-235.347	1825.62	32.7292	1.14499	0	-0.435328	0	-10.4599	0	0	0	0	-0.000304521	0	0.00139118	0	0	0
0.99	-181.97	1904.87	39.4526	1.1091	0	-0.43511	0	-12.058	0	0	0	0	-0.000304521	0	0.00139118	0	0	0
1	-115.261	1916.85	47.0933	1.07221	0	-0.435351	0	-13.4094	0	0	0	0	-0.000304521	0	0.00139118	0	0	0
1.01	-37.3014	1870.03	55.8806	1.03565	0	-0.436024	0	-14.4132	0	0	0	0	-0.000304521	0	0.00139118	0	0	0
1.02	46.2861	1768.52	66.1126	0.998507	0	-0.436997	0	-14.8623	0	0	0	0	-0.000304521	0	0.00139118	0	0	0
1.03	128.298	1612.25	75.7664	0.960112	0	-0.438194	0	-14.4622	0	0	0	0	-0.000304521	0	0.00139118	0	0	0
1.04	194.236	1404.15	81.4667	0.921168	0	-0.439235	0	-12.9299	0	0	0	0	-0.000304521	0	0.00139118	0	0	0
1.05	231.813	1154.13	79.9877	0.882676	0	-0.439925	0	-10.1587	0	0	0	0	-0.000304521	0	0.00139118	0	0	0
1.06	242.309	882.336	69.3012	0.845038	0	-0.440565	0	-6.37145	0	0	0	0	-0.000304521	0	0.00139118	0	0	0
1.07	230.519	619.7	51.1933	0.808944	0	-0.441639	0	-2.15412	0	0	0	0	-0.000304521	0	0.00139118	0	0	0
1.08	194.728	396.608	32.2804	0.775904	0	-0.441939	-0	1.69898	-0	0	0	0	-0.000304521	0	0.00139118	0	0	0
1.09	140.025	228.375	18.0281	0.745764	0	-0.43746	-0	4.47896	-0	0	0	0	-0.000304521	0	0.00139118	0	0	0
1.1	80.1004	113.296	8.23947	0.710809	0	-0.429355	-0	5.82671	-0	0	0	0	-0.000304521	0	0.00139118	0	0	0
1.11	33.4449	45.0957	1.85463	0.66136	0	-0.426247	-0	5.82592	-0	0	0	0	-0.000304521	0	0.00139118	0	0	0
1.12	9.04655	14.3518	-0.520865	0.677359	0	-0.406527	-0	4.91808	-0	0	0	0	-0.000304521	0	0.00139118	0	0	0
1.13	0	0	0	-0.000304521	0	0.00139118	0	0	0	0	0	0	-0.000304521	0	0.00139118	0	0	0
1.14	0	0	0	-0.000304521	0	0.00139118	0	0	0	0	0	0	-0.000304521	0	0.00139118	0	0	0
1.15	0	0	0	-0.000304521	0	0.00139118	0	0	0	0	0	0	-0.000304521	0	0.00139118	0	0	0
1.16	0	0	0	-0.000304521	0	0.00139118	0	0	0	0	0	0	-0.000304521	0	0.00139118	0	0	0
1.17	0	0	0	-0.000304521	0	0.00139118	0	0	0	0	0	0	-0.000304521	0	0.00139118	0	0	0
1.18	0	0	0	-0.000304521	0	0.00139118	0	0	0	0	0	0	-0.000304521	0	0.00139118	0	0	0
1.19	0	0	0	-0.000304521	0	0.00139118	0	0	0	0	0	0	-0.000304521	0	0.00139118	0	0	0
1.2	0	0	0	-0.000304521	0	0.00139118	0	0	0	-9.54368	25.0215	-5.63013	1.24835	0	-0.402633	-0	1.13193	-0
1.21	0	0	0	-0.000304521	0	0.00139118	0	0	0	-35.4768	92.0369	-7.33037	1.2817	0	-0.433371	0	-0.969691	0
1.22	0	0	0	-0.000304521	0	0.00139118	0	0	0	-79.1297	273.229	-5.29842	1.2907	0	-0.440383	0	-3.67148	0
1.23	0	0	0	-0.000304521	0	0.00139118	0	0	0	-117.861	619.57	3.55779	1.28822	0	-0.435711	0	-6.40952	0
1.24	0	0	0	-0.000304521	0	0.00139118	0	0	0	-141.915	1035.83	12.8005	1.27714	0	-0.431831	0	-8.46321	0
1.25	0	0	0	-0.000304521	0	0.00139118	0	0	0	-173.692	1307.65	11.5641	1.26231	0	-0.432077	0	-9.22306	0
1.26	0	0	0	-0.000304521	0	0.00139118	0	0	0	-214.075	1407.58	1.8981	1.24241	0	-0.433741	0	-8.42149	0
1.27	0	0	0	-0.000304521	0	0.00139118	0	0	0	-247.786	1506.55	-6.06203	1.21438	0	-0.433968	0	-6.15035	0
1.28	0	0	0	-0.000304521	0	0.00139118	0	0	0	-242.679	1666.18	-11.4637	1.18308	0	-0.432773	0	-2.7227	0
1.29	0	0	0	-0.000304521	0	0.00139118	0	0	0	-201.206	1821.39	-18.9092	1.15167	0	-0.431169	-0	1.43417	-0
1.3	0	0	0	-0.000304521	0	0.00139118	0	0	0	-142.701	1918.68	-28.4856	1.11875	0	-0.429377	-0	5.81513	-0
1.31	0	0	0	-0.000304521	0	0.00139118	0	0	0	-74.9327	1954.53	-37.7368	1.08375	0	-0.427498	-0	9.88397	-0
1.32	0	0	0	-0.000304521	0	0.00139118	0	0	0	-6.37224	1935.11	-45.6129	1.04752	0	-0.425422	-0	13.1601	-0
1.33	0	0	0	-0.000304521	0	0.00139118	0	0	0	64.9914	1858.97	-52.0747	1.01017	0	-0.423231	-0	15.3062	-0
1.34	0	0	0	-0.000304521	0	0.00139118	0	0	0	141.796	1726.86	-55.8327	0.971615	0	-0.421071	-0	16.1828	-0
1.35	0	0	0	-0.000304521	0	0.00139118	0	0	0	212.968	1542.1	-56.0561	0.932496	0	-0.41887	-0	15.8572	-0
1.36	0	0	0	-0.000304521	0	0.00139118	0	0	0	262.513	1312.59	-53.884	0.893186	0	-0.416827	-0	14.5626	-0
1.37	0	0	0	-0.000304521	0	0.00139118	0	0	0	277.932	1055.16	-50.2918	0.85366	0	-0.415072	-0	12.6166	-0
